<?xml version="1.0" encoding="us-ascii" standalone="no"?><svg xmlns="http://www.w3.org/2000/svg" xmlns:xlink="http://www.w3.org/1999/xlink" contentStyleType="text/css" height="575px" preserveAspectRatio="none" style="width:720px;height:575px;background:#FFFFFF;" version="1.1" viewBox="0 0 720 575" width="720px" zoomAndPan="magnify"><defs/><g><text fill="#000000" font-family="sans-serif" font-size="14" font-weight="bold" lengthAdjust="spacing" textLength="222" x="242" y="22.9951">The Internet Protocol Suite</text><ellipse cx="72.5" cy="54.2969" fill="#222222" rx="10" ry="10" style="stroke:#222222;stroke-width:1.0;"/><rect fill="#F1F1F1" height="33.9688" rx="12.5" ry="12.5" style="stroke:#181818;stroke-width:0.5;" width="131" x="7" y="122.2969"/><text fill="#000000" font-family="sans-serif" font-size="12" lengthAdjust="spacing" textLength="111" x="17" y="143.4355">Application (Send)</text><g id="elem_GMN5"><path d="M158.5,119.2969 L158.5,135.2969 L138.154,139.2969 L158.5,143.2969 L158.5,159.5625 A0,0 0 0 0 158.5,159.5625 L526.5,159.5625 A0,0 0 0 0 526.5,159.5625 L526.5,129.2969 L516.5,119.2969 L158.5,119.2969 A0,0 0 0 0 158.5,119.2969 " fill="#FEFFDD" style="stroke:#181818;stroke-width:0.5;"/><path d="M516.5,119.2969 L516.5,129.2969 L526.5,129.2969 L516.5,119.2969 " fill="#FEFFDD" style="stroke:#181818;stroke-width:0.5;"/><text fill="#000000" font-family="sans-serif" font-size="13" lengthAdjust="spacing" textLength="347" x="164.5" y="136.3638">High-level communication protocols, like DNS or HTTP.</text><text fill="#000000" font-family="sans-serif" font-size="13" lengthAdjust="spacing" textLength="289" x="164.5" y="151.4966">Typically, this is what our applications target.</text></g><rect fill="#F1F1F1" height="33.9688" rx="12.5" ry="12.5" style="stroke:#181818;stroke-width:0.5;" width="123" x="11" y="231.7969"/><text fill="#000000" font-family="sans-serif" font-size="12" lengthAdjust="spacing" textLength="103" x="21" y="252.9355">Transport (Send)</text><rect fill="#F1F1F1" height="33.9688" rx="12.5" ry="12.5" style="stroke:#181818;stroke-width:0.5;" width="111" x="17" y="348.7969"/><text fill="#000000" font-family="sans-serif" font-size="12" lengthAdjust="spacing" textLength="91" x="27" y="369.9355">Internet (Send)</text><rect fill="#F1F1F1" height="33.9688" rx="12.5" ry="12.5" style="stroke:#181818;stroke-width:0.5;" width="88" x="124.5" y="447.2969"/><text fill="#000000" font-family="sans-serif" font-size="12" lengthAdjust="spacing" textLength="68" x="134.5" y="468.4355">Link (Send)</text><rect fill="#F1F1F1" height="33.9688" rx="12.5" ry="12.5" style="stroke:#181818;stroke-width:0.5;" width="93" x="133" y="535.2969"/><text fill="#000000" font-family="sans-serif" font-size="12" lengthAdjust="spacing" textLength="73" x="143" y="556.4355">Host (Send)</text><rect fill="#F1F1F1" height="33.9688" rx="12.5" ry="12.5" style="stroke:#181818;stroke-width:0.5;" width="59" x="298" y="535.2969"/><text fill="#000000" font-family="sans-serif" font-size="12" lengthAdjust="spacing" textLength="39" x="308" y="556.4355">Switch</text><rect fill="#F1F1F1" height="33.9688" rx="12.5" ry="12.5" style="stroke:#181818;stroke-width:0.5;" width="59" x="428" y="535.2969"/><text fill="#000000" font-family="sans-serif" font-size="12" lengthAdjust="spacing" textLength="39" x="438" y="556.4355">Router</text><rect fill="#F1F1F1" height="33.9688" rx="12.5" ry="12.5" style="stroke:#181818;stroke-width:0.5;" width="101" x="407" y="447.2969"/><text fill="#000000" font-family="sans-serif" font-size="12" lengthAdjust="spacing" textLength="81" x="417" y="468.4355">More Routers</text><rect fill="#F1F1F1" height="33.9688" rx="12.5" ry="12.5" style="stroke:#181818;stroke-width:0.5;" width="91" x="558" y="535.2969"/><text fill="#000000" font-family="sans-serif" font-size="12" lengthAdjust="spacing" textLength="71" x="568" y="556.4355">Host (Recv)</text><rect fill="#F1F1F1" height="33.9688" rx="12.5" ry="12.5" style="stroke:#181818;stroke-width:0.5;" width="86" x="567.5" y="447.2969"/><text fill="#000000" font-family="sans-serif" font-size="12" lengthAdjust="spacing" textLength="66" x="577.5" y="468.4355">Link (Recv)</text><rect fill="#F1F1F1" height="33.9688" rx="12.5" ry="12.5" style="stroke:#181818;stroke-width:0.5;" width="109" x="595" y="348.7969"/><text fill="#000000" font-family="sans-serif" font-size="12" lengthAdjust="spacing" textLength="89" x="605" y="369.9355">Internet (Recv)</text><g id="elem_GMN32"><path d="M148,338.2969 L148,393.6953 A0,0 0 0 0 148,393.6953 L575,393.6953 A0,0 0 0 0 575,393.6953 L575,369.7969 L594.973,365.7969 L575,361.7969 L575,348.2969 L565,338.2969 L148,338.2969 A0,0 0 0 0 148,338.2969 " fill="#FEFFDD" style="stroke:#181818;stroke-width:0.5;"/><path d="M565,338.2969 L565,348.2969 L575,348.2969 L565,338.2969 " fill="#FEFFDD" style="stroke:#181818;stroke-width:0.5;"/><text fill="#000000" font-family="sans-serif" font-size="13" lengthAdjust="spacing" textLength="155" x="154" y="355.3638">Addressing is handled in</text><text fill="#000000" font-family="sans-serif" font-size="13" lengthAdjust="spacing" textLength="222" x="154" y="370.4966">IP via IP addresses. IP is unreliable.</text><text fill="#000000" font-family="sans-serif" font-size="13" lengthAdjust="spacing" textLength="406" x="154" y="385.6294">Packets will be missing, depulicated, out-of-order, or corrupted.</text></g><rect fill="#F1F1F1" height="33.9688" rx="12.5" ry="12.5" style="stroke:#181818;stroke-width:0.5;" width="121" x="589" y="231.7969"/><text fill="#000000" font-family="sans-serif" font-size="12" lengthAdjust="spacing" textLength="101" x="599" y="252.9355">Transport (Recv)</text><g id="elem_GMN38"><path d="M194,213.2969 L194,283.8281 A0,0 0 0 0 194,283.8281 L569,283.8281 A0,0 0 0 0 569,283.8281 L569,252.7969 L588.925,248.7969 L569,244.7969 L569,223.2969 L559,213.2969 L194,213.2969 A0,0 0 0 0 194,213.2969 " fill="#FEFFDD" style="stroke:#181818;stroke-width:0.5;"/><path d="M559,213.2969 L559,223.2969 L569,223.2969 L559,213.2969 " fill="#FEFFDD" style="stroke:#181818;stroke-width:0.5;"/><text fill="#000000" font-family="sans-serif" font-size="13" lengthAdjust="spacing" textLength="286" x="200" y="230.3638">TCP creates the illusion of a reliable channel,</text><text fill="#000000" font-family="sans-serif" font-size="13" lengthAdjust="spacing" textLength="165" x="200" y="245.4966">built on an unreliable one.</text><text fill="#000000" font-family="sans-serif" font-size="13" lengthAdjust="spacing" textLength="354" x="200" y="260.6294">Byte streams are partitioned into numbered segments,</text><text fill="#000000" font-family="sans-serif" font-size="13" lengthAdjust="spacing" textLength="262" x="200" y="275.7622">to detect holes, dropped, duplicates, etc.</text></g><rect fill="#F1F1F1" height="33.9688" rx="12.5" ry="12.5" style="stroke:#181818;stroke-width:0.5;" width="129" x="585" y="122.2969"/><text fill="#000000" font-family="sans-serif" font-size="12" lengthAdjust="spacing" textLength="109" x="595" y="143.4355">Application (Recv)</text><ellipse cx="649.5" cy="54.2969" fill="none" rx="11" ry="11" style="stroke:#222222;stroke-width:1.0;"/><ellipse cx="649.5" cy="54.2969" fill="#222222" rx="6" ry="6" style="stroke:#222222;stroke-width:1.0;"/><!--link start to Application (Send)--><g id="link_start_Application (Send)"><path d="M72.5,64.4969 C72.5,78.4249 72.5,99.0569 72.5,116.2309 " fill="none" id="start-to-Application (Send)" style="stroke:#181818;stroke-width:1.0;"/><polygon fill="#181818" points="72.5,122.2309,76.5,113.2309,72.5,117.2309,68.5,113.2309,72.5,122.2309" style="stroke:#181818;stroke-width:1.0;"/><text fill="#000000" font-family="sans-serif" font-size="11" lengthAdjust="spacing" textLength="27" x="73.5" y="96.5073">Start</text></g><!--link Application (Send) to Transport (Send)--><g id="link_Application (Send)_Transport (Send)"><path d="M72.5,156.6239 C72.5,176.9469 72.5,205.4389 72.5,225.6689 " fill="none" id="Application (Send)-to-Transport (Send)" style="stroke:#181818;stroke-width:1.0;"/><polygon fill="#181818" points="72.5,231.6689,76.5,222.6689,72.5,226.6689,68.5,222.6689,72.5,231.6689" style="stroke:#181818;stroke-width:1.0;"/><text fill="#000000" font-family="sans-serif" font-size="11" lengthAdjust="spacing" textLength="36" x="73.5" y="190.5073">HTTPS</text></g><!--link Transport (Send) to Internet (Send)--><g id="link_Transport (Send)_Internet (Send)"><path d="M72.5,266.2739 C72.5,288.2589 72.5,320.9409 72.5,342.7219 " fill="none" id="Transport (Send)-to-Internet (Send)" style="stroke:#181818;stroke-width:1.0;"/><polygon fill="#181818" points="72.5,348.7219,76.5,339.7219,72.5,343.7219,68.5,339.7219,72.5,348.7219" style="stroke:#181818;stroke-width:1.0;"/><text fill="#000000" font-family="sans-serif" font-size="11" lengthAdjust="spacing" textLength="21" x="73.5" y="315.5073">TCP</text></g><!--link Internet (Send) to Link (Send)--><g id="link_Internet (Send)_Link (Send)"><path d="M88.7851,383.1669 C106.5453,401.0199 130.5595,425.1581 148.2235,442.9151 " fill="none" id="Internet (Send)-to-Link (Send)" style="stroke:#181818;stroke-width:1.0;"/><polygon fill="#181818" points="152.455,447.1689,148.9436,437.9672,148.9288,443.6241,143.2719,443.6092,152.455,447.1689" style="stroke:#181818;stroke-width:1.0;"/><text fill="#000000" font-family="sans-serif" font-size="11" lengthAdjust="spacing" textLength="9" x="133.5" y="424.5073">IP</text></g><!--link Link (Send) to Host (Send)--><g id="link_Link (Send)_Host (Send)"><path d="M170.569,481.4728 C172.536,496.8483 174.716,513.8905 176.679,529.2419 " fill="none" id="Link (Send)-to-Host (Send)" style="stroke:#181818;stroke-width:1.0;"/><polygon fill="#181818" points="177.44,535.1935,180.2661,525.7588,176.8058,530.2339,172.3308,526.7735,177.44,535.1935" style="stroke:#181818;stroke-width:1.0;"/><text fill="#000000" font-family="sans-serif" font-size="11" lengthAdjust="spacing" textLength="49" x="176.5" y="512.5073">Ethernet</text></g><!--link Host (Send) to Switch--><g id="link_Host (Send)_Switch"><path d="M226.328,552.2969 C249.702,552.2969 271.275,552.2969 291.728,552.2969 " fill="none" id="Host (Send)-to-Switch" style="stroke:#181818;stroke-width:1.0;"/><polygon fill="#181818" points="297.728,552.2969,288.728,548.2969,292.728,552.2969,288.728,556.2969,297.728,552.2969" style="stroke:#181818;stroke-width:1.0;"/><text fill="#000000" font-family="sans-serif" font-size="11" lengthAdjust="spacing" textLength="49" x="237.5" y="546.5073">Ethernet</text></g><!--link Switch to Router--><g id="link_Switch_Router"><path d="M357.325,552.2969 C378.464,552.2969 400.706,552.2969 421.814,552.2969 " fill="none" id="Switch-to-Router" style="stroke:#181818;stroke-width:1.0;"/><polygon fill="#181818" points="427.814,552.2969,418.814,548.2969,422.814,552.2969,418.814,556.2969,427.814,552.2969" style="stroke:#181818;stroke-width:1.0;"/><text fill="#000000" font-family="sans-serif" font-size="11" lengthAdjust="spacing" textLength="49" x="368" y="546.5073">Ethernet</text></g><!--reverse link More Routers to Router--><g id="link_More Routers_Router"><path d="M457.5,487.4728 C457.5,502.8483 457.5,519.8421 457.5,535.1935 " fill="none" id="More Routers-backto-Router" style="stroke:#181818;stroke-width:1.0;"/><polygon fill="#181818" points="457.5,481.4728,453.5,490.4728,457.5,486.4728,461.5,490.4728,457.5,481.4728" style="stroke:#181818;stroke-width:1.0;"/><text fill="#000000" font-family="sans-serif" font-size="11" lengthAdjust="spacing" textLength="9" x="458.5" y="512.5073">IP</text></g><!--link More Routers to Router--><g id="link_More Routers_Router"><path d="M448.668,481.2972 C445.782,487.3713 442.948,494.4726 441.5,501.2969 C439.078,512.7089 440.4928,519.7944 445.0988,529.4414 " fill="none" id="More Routers-to-Router" style="stroke:#181818;stroke-width:1.0;"/><polygon fill="#181818" points="447.684,534.8559,447.4159,525.0107,445.5297,530.3438,440.1966,528.4576,447.684,534.8559" style="stroke:#181818;stroke-width:1.0;"/><text fill="#000000" font-family="sans-serif" font-size="11" lengthAdjust="spacing" textLength="9" x="442.5" y="512.5073">IP</text></g><!--link Router to Host (Recv)--><g id="link_Router_Host (Recv)"><path d="M487.045,552.2969 C507.376,552.2969 528.777,552.2969 551.893,552.2969 " fill="none" id="Router-to-Host (Recv)" style="stroke:#181818;stroke-width:1.0;"/><polygon fill="#181818" points="557.893,552.2969,548.893,548.2969,552.893,552.2969,548.893,556.2969,557.893,552.2969" style="stroke:#181818;stroke-width:1.0;"/><text fill="#000000" font-family="sans-serif" font-size="11" lengthAdjust="spacing" textLength="49" x="498" y="546.5073">Ethernet</text></g><!--reverse link Link (Recv) to Host (Recv)--><g id="link_Link (Recv)_Host (Recv)"><path d="M608.6964,487.453 C607.4454,502.8285 606.06,519.8421 604.811,535.1935 " fill="none" id="Link (Recv)-backto-Host (Recv)" style="stroke:#181818;stroke-width:1.0;"/><polygon fill="#181818" points="609.183,481.4728,604.4663,490.1188,608.7775,486.4563,612.44,490.7675,609.183,481.4728" style="stroke:#181818;stroke-width:1.0;"/><text fill="#000000" font-family="sans-serif" font-size="11" lengthAdjust="spacing" textLength="49" x="607.5" y="512.5073">Ethernet</text></g><!--reverse link Internet (Recv) to Link (Recv)--><g id="link_Internet (Recv)_Link (Recv)"><path d="M640.6358,388.7298 C633.4208,406.5828 624.194,429.4119 617.018,447.1689 " fill="none" id="Internet (Recv)-backto-Link (Recv)" style="stroke:#181818;stroke-width:1.0;"/><polygon fill="#181818" points="642.884,383.1669,635.8032,390.0124,641.0105,387.8026,643.2204,393.01,642.884,383.1669" style="stroke:#181818;stroke-width:1.0;"/><text fill="#000000" font-family="sans-serif" font-size="11" lengthAdjust="spacing" textLength="9" x="630.5" y="424.5073">IP</text></g><!--reverse link Transport (Recv) to Internet (Recv)--><g id="link_Transport (Recv)_Internet (Recv)"><path d="M649.5,272.2739 C649.5,294.2589 649.5,326.9409 649.5,348.7219 " fill="none" id="Transport (Recv)-backto-Internet (Recv)" style="stroke:#181818;stroke-width:1.0;"/><polygon fill="#181818" points="649.5,266.2739,645.5,275.2739,649.5,271.2739,653.5,275.2739,649.5,266.2739" style="stroke:#181818;stroke-width:1.0;"/><text fill="#000000" font-family="sans-serif" font-size="11" lengthAdjust="spacing" textLength="21" x="650.5" y="315.5073">TCP</text></g><!--reverse link Application (Recv) to Transport (Recv)--><g id="link_Application (Recv)_Transport (Recv)"><path d="M649.5,162.6239 C649.5,182.9469 649.5,211.4389 649.5,231.6689 " fill="none" id="Application (Recv)-backto-Transport (Recv)" style="stroke:#181818;stroke-width:1.0;"/><polygon fill="#181818" points="649.5,156.6239,645.5,165.6239,649.5,161.6239,653.5,165.6239,649.5,156.6239" style="stroke:#181818;stroke-width:1.0;"/><text fill="#000000" font-family="sans-serif" font-size="11" lengthAdjust="spacing" textLength="36" x="650.5" y="190.5073">HTTPS</text></g><!--reverse link end to Application (Recv)--><g id="link_end_Application (Recv)"><path d="M649.5,71.4739 C649.5,85.5859 649.5,105.2509 649.5,122.0349 " fill="none" id="end-backto-Application (Recv)" style="stroke:#181818;stroke-width:1.0;"/><polygon fill="#181818" points="649.5,65.4739,645.5,74.4739,649.5,70.4739,653.5,74.4739,649.5,65.4739" style="stroke:#181818;stroke-width:1.0;"/><text fill="#000000" font-family="sans-serif" font-size="11" lengthAdjust="spacing" textLength="21" x="650.5" y="96.5073">End</text></g><!--SRC=[RLDTYzim47pthrZkwLAS_8J2zGCIQ8iv-wtSWo9jOX5PAwHLGlvzL_OvZUy21c7DQdP7CsBB3g7h4NQUCNfaQ28nQNBGPijOLSzVLh0sTF7hhtzRLf7VuEab16UrOaiUdblqPlLKUMA4Q8yzLm1RMTSEp-X0qp1aFrU7T_PKWxCdX1z_Mg08swvhDdAkkmQfTEvQ0_SsWNoNNZ5GZg3-DqqWWnoHDvNqXjAvcaSiJAsCs4NbKw38jm7dYkvx8_XDxqTuLz1Vrfy-8J-v7uy8lgLqTt9KlIneBvPr_nXxfIoz1SjXxlUR8iAqdpwCSgj-m3IDyOhwl9hfxj19n0BTBQM_OwDr3W_5kHTZ8gPa_R5SVg-ySMZ0Ue5s3PojAekQYZ1jof_KPH_HMRLtM5nib3uXYtNMETWZ37OahC5WoAE7Q6hnbDTqM5Cq6EiI0aqnvY3OlQtZs9DbTvO-65ngG4SKRac715fwvrGYHmTGC8y7MYHvTBMSs6Vh95eUbByJ81kZY6zNuKuiZ4C29VO4oRujwHllWmby7lOOvI_XSK3FgP3Ala56pT2JGucvYHH2qMlobD-oYQm_YPoJktXSIs-zUGDvZ_y0]--></g></svg>