<?xml version="1.0" encoding="us-ascii" standalone="no"?><svg xmlns="http://www.w3.org/2000/svg" xmlns:xlink="http://www.w3.org/1999/xlink" contentStyleType="text/css" height="348px" preserveAspectRatio="none" style="width:746px;height:348px;background:#FFFFFF;" version="1.1" viewBox="0 0 746 348" width="746px" zoomAndPan="magnify"><defs/><g><text fill="#000000" font-family="sans-serif" font-size="14" font-weight="bold" lengthAdjust="spacing" textLength="138" x="305.25" y="27.9951">HTTP Cache Miss</text><line style="stroke:#181818;stroke-width:0.5;stroke-dasharray:5.0,5.0;" x1="33" x2="33" y1="73.5938" y2="312.9219"/><line style="stroke:#181818;stroke-width:0.5;stroke-dasharray:5.0,5.0;" x1="237.5" x2="237.5" y1="73.5938" y2="312.9219"/><line style="stroke:#181818;stroke-width:0.5;stroke-dasharray:5.0,5.0;" x1="475" x2="475" y1="73.5938" y2="312.9219"/><rect fill="#E2E2F0" height="30.2969" rx="2.5" ry="2.5" style="stroke:#181818;stroke-width:0.5;" width="57" x="5" y="42.2969"/><text fill="#000000" font-family="sans-serif" font-size="14" lengthAdjust="spacing" textLength="43" x="12" y="62.292">Client</text><rect fill="#E2E2F0" height="30.2969" rx="2.5" ry="2.5" style="stroke:#181818;stroke-width:0.5;" width="57" x="5" y="311.9219"/><text fill="#000000" font-family="sans-serif" font-size="14" lengthAdjust="spacing" textLength="43" x="12" y="331.917">Client</text><rect fill="#E2E2F0" height="30.2969" rx="2.5" ry="2.5" style="stroke:#181818;stroke-width:0.5;" width="58" x="208.5" y="42.2969"/><text fill="#000000" font-family="sans-serif" font-size="14" lengthAdjust="spacing" textLength="44" x="215.5" y="62.292">Cache</text><rect fill="#E2E2F0" height="30.2969" rx="2.5" ry="2.5" style="stroke:#181818;stroke-width:0.5;" width="58" x="208.5" y="311.9219"/><text fill="#000000" font-family="sans-serif" font-size="14" lengthAdjust="spacing" textLength="44" x="215.5" y="331.917">Cache</text><rect fill="#E2E2F0" height="30.2969" rx="2.5" ry="2.5" style="stroke:#181818;stroke-width:0.5;" width="61" x="445" y="42.2969"/><text fill="#000000" font-family="sans-serif" font-size="14" lengthAdjust="spacing" textLength="47" x="452" y="62.292">Server</text><rect fill="#E2E2F0" height="30.2969" rx="2.5" ry="2.5" style="stroke:#181818;stroke-width:0.5;" width="61" x="445" y="311.9219"/><text fill="#000000" font-family="sans-serif" font-size="14" lengthAdjust="spacing" textLength="47" x="452" y="331.917">Server</text><polygon fill="#181818" points="225.5,100.7266,235.5,104.7266,225.5,108.7266,229.5,104.7266" style="stroke:#181818;stroke-width:1.0;"/><line style="stroke:#181818;stroke-width:1.0;" x1="33.5" x2="231.5" y1="104.7266" y2="104.7266"/><text fill="#000000" font-family="sans-serif" font-size="13" lengthAdjust="spacing" textLength="123" x="40.5" y="99.6606">GET /customer/123</text><polygon fill="#181818" points="463.5,140.4258,473.5,144.4258,463.5,148.4258,467.5,144.4258" style="stroke:#181818;stroke-width:1.0;"/><line style="stroke:#181818;stroke-width:1.0;" x1="237.5" x2="469.5" y1="144.4258" y2="144.4258"/><text fill="#000000" font-family="sans-serif" font-size="13" lengthAdjust="spacing" textLength="214" x="244.5" y="139.3599">GET /customer/123 (cache miss!)</text><path d="M480,117.7266 L480,157.7266 L739,157.7266 L739,127.7266 L729,117.7266 L480,117.7266 " fill="#FEFFDD" style="stroke:#181818;stroke-width:0.5;"/><path d="M729,117.7266 L729,127.7266 L739,127.7266 L729,117.7266 " fill="#FEFFDD" style="stroke:#181818;stroke-width:0.5;"/><text fill="#000000" font-family="sans-serif" font-size="13" lengthAdjust="spacing" textLength="230" x="486" y="134.7935">The cache didn't have the resource.</text><text fill="#000000" font-family="sans-serif" font-size="13" lengthAdjust="spacing" textLength="238" x="486" y="149.9263">So we need to get it from the server.</text><polygon fill="#181818" points="248.5,213.3906,238.5,217.3906,248.5,221.3906,244.5,217.3906" style="stroke:#181818;stroke-width:1.0;"/><line style="stroke:#181818;stroke-width:1.0;" x1="242.5" x2="474.5" y1="217.3906" y2="217.3906"/><text fill="#000000" font-family="sans-serif" font-size="13" lengthAdjust="spacing" textLength="46" x="254.5" y="182.0591">200 OK</text><text fill="#000000" font-family="sans-serif" font-size="13" lengthAdjust="spacing" textLength="180" x="254.5" y="197.1919">Cache-Control:max-age=60</text><text fill="#000000" font-family="sans-serif" font-size="13" lengthAdjust="spacing" textLength="75" x="254.5" y="212.3247">ETag:"v1.0"</text><path d="M480,167.9922 L480,222.9922 L720,222.9922 L720,177.9922 L710,167.9922 L480,167.9922 " fill="#FEFFDD" style="stroke:#181818;stroke-width:0.5;"/><path d="M710,167.9922 L710,177.9922 L720,177.9922 L710,167.9922 " fill="#FEFFDD" style="stroke:#181818;stroke-width:0.5;"/><text fill="#000000" font-family="sans-serif" font-size="13" lengthAdjust="spacing" textLength="175" x="486" y="185.0591">Respond and include cache</text><text fill="#000000" font-family="sans-serif" font-size="13" lengthAdjust="spacing" textLength="219" x="486" y="200.1919">HTTP headers. Note that max-age</text><text fill="#000000" font-family="sans-serif" font-size="13" lengthAdjust="spacing" textLength="190" x="486" y="215.3247">(TTL) and age are in seconds.</text><polygon fill="#181818" points="44.5,290.9219,34.5,294.9219,44.5,298.9219,40.5,294.9219" style="stroke:#181818;stroke-width:1.0;"/><line style="stroke:#181818;stroke-width:1.0;" x1="38.5" x2="236.5" y1="294.9219" y2="294.9219"/><text fill="#000000" font-family="sans-serif" font-size="13" lengthAdjust="spacing" textLength="46" x="50.5" y="244.4575">200 OK</text><text fill="#000000" font-family="sans-serif" font-size="13" lengthAdjust="spacing" textLength="180" x="50.5" y="259.5903">Cache-Control:max-age=60</text><text fill="#000000" font-family="sans-serif" font-size="13" lengthAdjust="spacing" textLength="75" x="50.5" y="274.7231">ETag:"v1.0"</text><text fill="#000000" font-family="sans-serif" font-size="13" lengthAdjust="spacing" textLength="38" x="50.5" y="289.856">Age:0</text><!--SRC=[bP1DQyCm38Rl_XLQBsiFITCETWXiC4BPO9-iFkPYR2qn9FQmbMm_VwfTzW6zxE23f4Ul7qIM1eGxAL-WKRf7UBGn2j4C5Xr1SPsxDTpk9Apr5CcF6DQRxON8E1Dx33E64mWiTM96ZZnR2US98TYk9m4WkP-dnXftJj2h6O6u3XZz53IMJEqzV20uH0FaeKC2I_0M_9Z8c3uk1Jfpo1PPv9VqjghW-RvrgImQxoZueHxLPw4wlBgiMhUJggiNywQi5d_zNZ6-UsT0yRDE3vCv-l8iNQj7PJ344fuEQzGhWcCm4qif7rPfbsjG0Jc3TJKdnX_VxmlcQ__JjtKt7TRL5m00]--></g></svg>