<?xml version="1.0" encoding="us-ascii" standalone="no"?><svg xmlns="http://www.w3.org/2000/svg" xmlns:xlink="http://www.w3.org/1999/xlink" contentStyleType="text/css" height="291px" preserveAspectRatio="none" style="width:183px;height:291px;background:#FFFFFF;" version="1.1" viewBox="0 0 183 291" width="183px" zoomAndPan="magnify"><defs/><g><text fill="#000000" font-family="sans-serif" font-size="14" font-weight="bold" lengthAdjust="spacing" textLength="104" x="32.75" y="22.9951">Trie Example</text><ellipse cx="117" cy="53.2969" fill="#222222" rx="10" ry="10" style="stroke:#222222;stroke-width:1.0;"/><rect fill="#F1F1F1" height="33.9688" rx="12.5" ry="12.5" style="stroke:#181818;stroke-width:0.5;" width="28" x="76" y="103.2969"/><text fill="#000000" font-family="sans-serif" font-size="12" lengthAdjust="spacing" textLength="8" x="86" y="124.4355">C</text><rect fill="#F1F1F1" height="33.9688" rx="12.5" ry="12.5" style="stroke:#181818;stroke-width:0.5;" width="29" x="130.5" y="103.2969"/><text fill="#000000" font-family="sans-serif" font-size="12" lengthAdjust="spacing" textLength="9" x="140.5" y="124.4355">D</text><rect fill="#F1F1F1" height="33.9688" rx="12.5" ry="12.5" style="stroke:#181818;stroke-width:0.5;" width="28" x="65" y="177.2969"/><text fill="#000000" font-family="sans-serif" font-size="12" lengthAdjust="spacing" textLength="8" x="75" y="198.4355">A</text><rect fill="#F1F1F1" height="33.9688" rx="12.5" ry="12.5" style="stroke:#181818;stroke-width:0.5;" width="28" x="7" y="251.2969"/><text fill="#000000" font-family="sans-serif" font-size="12" lengthAdjust="spacing" textLength="8" x="17" y="272.4355">B</text><rect fill="#F1F1F1" height="33.9688" rx="12.5" ry="12.5" style="stroke:#181818;stroke-width:0.5;" width="26" x="55" y="251.2969"/><text fill="#000000" font-family="sans-serif" font-size="12" lengthAdjust="spacing" textLength="6" x="65" y="272.4355">P</text><rect fill="#F1F1F1" height="33.9688" rx="12.5" ry="12.5" style="stroke:#181818;stroke-width:0.5;" width="27" x="101.5" y="251.2969"/><text fill="#000000" font-family="sans-serif" font-size="12" lengthAdjust="spacing" textLength="7" x="111.5" y="272.4355">T</text><rect fill="#F1F1F1" height="33.9688" rx="12.5" ry="12.5" style="stroke:#181818;stroke-width:0.5;" width="30" x="136" y="177.2969"/><text fill="#000000" font-family="sans-serif" font-size="12" lengthAdjust="spacing" textLength="10" x="146" y="198.4355">O</text><rect fill="#F1F1F1" height="33.9688" rx="12.5" ry="12.5" style="stroke:#181818;stroke-width:0.5;" width="29" x="148.5" y="251.2969"/><text fill="#000000" font-family="sans-serif" font-size="12" lengthAdjust="spacing" textLength="9" x="158.5" y="272.4355">G</text><!--link start to C--><g id="link_start_C"><path d="M113.47,62.7949 C109.239,72.9809 104.3575,84.7329 99.0496,97.5109 " fill="none" id="start-to-C" style="stroke:#181818;stroke-width:1.0;"/><polygon fill="#181818" points="96.7479,103.0519,103.8944,96.2749,98.666,98.4344,96.5064,93.206,96.7479,103.0519" style="stroke:#181818;stroke-width:1.0;"/></g><!--link start to D--><g id="link_start_D"><path d="M120.661,62.7949 C125.048,72.9809 130.1244,84.7633 135.6284,97.5413 " fill="none" id="start-to-D" style="stroke:#181818;stroke-width:1.0;"/><polygon fill="#181818" points="138.002,103.0519,138.1153,93.2037,136.024,98.4598,130.7679,96.3685,138.002,103.0519" style="stroke:#181818;stroke-width:1.0;"/></g><!--link C to A--><g id="link_C_A"><path d="M87.5039,137.6349 C85.7037,149.4179 84.1902,159.3237 82.3923,171.0927 " fill="none" id="C-to-A" style="stroke:#181818;stroke-width:1.0;"/><polygon fill="#181818" points="81.4862,177.0239,86.7995,168.7311,82.2413,172.0812,78.8912,167.523,81.4862,177.0239" style="stroke:#181818;stroke-width:1.0;"/></g><!--link A to B--><g id="link_A_B"><path d="M65.8389,211.6348 C56.3469,223.4181 47.3531,234.5828 37.873,246.3511 " fill="none" id="A-to-B" style="stroke:#181818;stroke-width:1.0;"/><polygon fill="#181818" points="34.109,251.0236,42.87,246.5241,37.2457,247.1298,36.64,241.5055,34.109,251.0236" style="stroke:#181818;stroke-width:1.0;"/></g><!--link A to P--><g id="link_A_P"><path d="M76.5039,211.6348 C74.7037,223.4181 73.1902,233.3241 71.3923,245.0924 " fill="none" id="A-to-P" style="stroke:#181818;stroke-width:1.0;"/><polygon fill="#181818" points="70.4862,251.0236,75.7995,242.7309,71.2413,246.0809,67.8913,241.5227,70.4862,251.0236" style="stroke:#181818;stroke-width:1.0;"/></g><!--link A to T--><g id="link_A_T"><path d="M87.169,211.6348 C93.0606,223.4181 98.2959,233.8887 104.1801,245.657 " fill="none" id="A-to-T" style="stroke:#181818;stroke-width:1.0;"/><polygon fill="#181818" points="106.8634,251.0236,106.4162,241.1849,104.6273,246.5514,99.2607,244.7626,106.8634,251.0236" style="stroke:#181818;stroke-width:1.0;"/></g><!--link D to O--><g id="link_D_O"><path d="M146.361,137.6349 C147.343,149.4179 148.1646,159.2756 149.1456,171.0446 " fill="none" id="D-to-O" style="stroke:#181818;stroke-width:1.0;"/><polygon fill="#181818" points="149.644,177.0239,152.8826,167.7227,149.2287,172.0412,144.9102,168.3872,149.644,177.0239" style="stroke:#181818;stroke-width:1.0;"/></g><!--link O to G--><g id="link_O_G"><path d="M153.723,211.6348 C155.687,223.4181 157.3393,233.337 159.3013,245.1053 " fill="none" id="O-to-G" style="stroke:#181818;stroke-width:1.0;"/><polygon fill="#181818" points="160.288,251.0236,162.7535,241.4883,159.4658,246.0916,154.8624,242.8039,160.288,251.0236" style="stroke:#181818;stroke-width:1.0;"/></g><!--SRC=[AyaioKbL22dAJ5LmhKZCBSX9vUBIqD9KqDMrKt26irouk9mLT5Foo_E074SkHpZR2OaTWCGEuU9oWNFykVpXR7S0]--></g></svg>